<?xml version="1.0" encoding="UTF-8"?><svg id="Layer_1" xmlns="http://www.w3.org/2000/svg" viewBox="0 0 1581 1001.13"><defs><style>.cls-1{fill:#fff;}.cls-2{fill:#b32a35;}.cls-3{fill:none;}.cls-4{fill:#60151b;}</style></defs><path class="cls-1" d="M1005.31,513.88c0,140.2-59.22,266.59-154.02,355.47-87.14,81.73-204.34,131.78-333.23,131.78s-244.81-49.5-331.79-130.43C90.64,781.75,30.81,654.79,30.81,513.88,30.81,244.78,248.97,26.63,518.06,26.63s487.25,218.15,487.25,487.25Z"/><path class="cls-4" d="M937.56,514c0,120.71-50.99,229.52-132.6,306.04-7.71,7.24-15.7,14.18-23.95,20.82-12.4,9.99-25.38,19.29-38.89,27.84-59.36,37.59-128.81,60.67-203.38,64.3-.69,.04-1.38,.06-2.07,.09-6.17,.27-12.37,.41-18.61,.41h-.24c-84.11-.05-162.44-24.85-228.08-67.52-5.59-3.63-11.08-7.39-16.48-11.28-.02-.01-.04-.03-.06-.04-14.3-10.3-27.93-21.48-40.8-33.45-82.33-76.59-133.84-185.89-133.84-307.21,0-231.68,187.82-419.5,419.5-419.5s419.5,187.82,419.5,419.5Z"/><path class="cls-4" d="M670.33,529.89c-17.16,34.53-45.02,62.44-79.04,79.04l79.04-79.04Z"/><polygon class="cls-2" points="518.47 692.63 518.94 693.26 518.05 692.83 517.7 693 517.89 692.75 518.22 692.29 518.47 692.63"/><line class="cls-3" x1="702.41" y1="399.82" x2="711.41" y2="428.82"/><path class="cls-2" d="M648.77,455.41c.09,2.17,.47,4.39,.13,6.56-12.9,82.03-57.84,166.03-129.9,166.03s-117-79-131.06-166.03c-.35-2.18,.04-4.4,.13-6.58-44.53-4.46-85.08-10.84-121.07-17.89l125.89-48.6,21.6-139.59c1.66-10.72,8.03-20.13,17.37-25.65l61.04-36.08c13.12-7.76,29.43-7.76,42.55,0l60.43,35.72c9.73,5.75,16.42,15.51,18.28,26.66l22.92,137.49c44.3,16.69,88.61,33.37,132.91,50.05-36.18,7.09-76.77,13.46-121.23,17.91Z"/><path class="cls-4" d="M490.19,486.8c-6.68,14.55-28.17,18.97-47.99,9.87-18.18-8.36-28.65-25.17-25.09-39.13,23.8,7.43,48.82,14.5,75.04,21.01-.11,2.85-.75,5.62-1.96,8.25Z"/><path class="cls-4" d="M542.69,486.26c6.52,14.63,27.96,19.29,47.88,10.42,18.28-8.15,28.94-24.84,25.53-38.84-23.88,7.16-48.98,13.94-75.28,20.15,.08,2.85,.69,5.63,1.87,8.27Z"/><path class="cls-2" d="M748,792.17c0,17.09,0,40.83-3.4,60.67-.41,10.36-1.54,14.21-2.48,15.86-59.36,37.59-128.81,60.67-203.38,64.3-.69,.04-1.38,.06-2.07,.09-6.17,.27-12.37,.41-18.61,.41h-.24c-84.11-.05-162.44-24.85-228.08-67.52-1.43-21.74-.18-59.35-.18-73.81,0-57.59,18.7-110.54,49.97-152.31l.03-.03,47.14-78.64,3.34-5.57,25.37,34.18,73.51,99.05,29.81,40.16-.28,.39-.16,.21,.29-.14,.76,.36-.4-.53-.21-.29,30.63-41.26,73.15-98.57,25.08-33.79,3.21,5.35,48.28,80.54c30.65,41.54,48.92,93.94,48.92,150.89Z"/><polygon class="cls-2" points="518.47 692.63 518.05 692.83 517.7 693 517.89 692.75 518.22 692.29 518.47 692.63"/><polygon class="cls-2" points="518.94 693.26 518.05 692.83 517.89 692.75 518.22 692.29 518.47 692.63 518.94 693.26"/></svg>