<?xml version="1.0" encoding="UTF-8"?><svg id="Layer_1" xmlns="http://www.w3.org/2000/svg" viewBox="0 0 1581 1001.13"><defs><style>.cls-1{fill:#fff;}.cls-2{fill:#ceeaf7;}.cls-3{fill:#26cbef;}.cls-4{fill:#b32a35;}.cls-5,.cls-6{fill:#29a4d8;}.cls-7,.cls-8,.cls-9{fill:none;}.cls-8{stroke:#fff;stroke-linecap:round;stroke-width:40px;}.cls-8,.cls-9,.cls-6{stroke-miterlimit:10;}.cls-9{stroke:#29a4d8;stroke-width:9px;}.cls-6{stroke:#3177bf;stroke-width:22px;}</style></defs><path class="cls-1" d="M1005.31,513.88c0,140.2-59.22,266.59-154.02,355.47-87.14,81.73-204.34,131.78-333.23,131.78s-244.81-49.5-331.79-130.43C90.64,781.75,30.81,654.79,30.81,513.88,30.81,244.78,248.97,26.63,518.06,26.63s487.25,218.15,487.25,487.25Z"/><path class="cls-3" d="M518.06,94.5c-231.68,0-419.5,187.82-419.5,419.5,0,121.32,51.51,230.62,133.84,307.21,12.87,11.97,26.5,23.15,40.8,33.45,.02,.01,.04,.03,.06,.04,5.4,3.89,10.89,7.65,16.48,11.28,65.64,42.67,143.97,67.47,228.08,67.52h.24c6.24,0,12.44-.14,18.61-.41,.69-.03,1.38-.05,2.07-.09,74.57-3.63,144.02-26.71,203.38-64.3,13.51-8.55,26.49-17.85,38.89-27.84,8.25-6.64,16.24-13.58,23.95-20.82,81.61-76.52,132.6-185.33,132.6-306.04,0-231.68-187.82-419.5-419.5-419.5Zm-131.36,466.69c-7.64-9.62-14.31-20.08-19.86-31.25l78.99,78.99c-10.82-5.28-21-11.71-30.42-19.13-10.62-8.34-20.26-17.95-28.71-28.61Zm235.81,27.99c-9.64,7.69-20.1,14.33-31.22,19.75l79.04-79.04c-5.47,11.01-12.03,21.34-19.53,30.85-8.33,10.58-17.83,20.13-28.29,28.44Z"/><path class="cls-3" d="M670.33,529.89c-17.16,34.53-45.02,62.44-79.04,79.04l79.04-79.04Z"/><path class="cls-3" d="M445.83,608.93c-34.01-16.61-61.83-44.49-78.99-78.99l78.99,78.99Z"/><polygon class="cls-4" points="518.47 692.63 518.94 693.26 518.05 692.83 517.7 693 517.89 692.75 518.22 692.29 518.47 692.63"/><line class="cls-7" x1="702.41" y1="399.82" x2="711.41" y2="428.82"/><polygon class="cls-4" points="518.47 692.63 518.05 692.83 517.7 693 517.89 692.75 518.22 692.29 518.47 692.63"/><polygon class="cls-4" points="518.94 693.26 518.05 692.83 517.89 692.75 518.22 692.29 518.47 692.63 518.94 693.26"/><rect class="cls-2" x="316" y="291" width="405" height="446" rx="42.06" ry="42.06"/><rect class="cls-5" x="366" y="360" width="303" height="108" rx="11.91" ry="11.91"/><line class="cls-9" x1="366" y1="539" x2="658.5" y2="538.5"/><line class="cls-9" x1="366.5" y1="579" x2="658.5" y2="579"/><line class="cls-9" x1="366.5" y1="619.25" x2="658.5" y2="619.25"/><line class="cls-9" x1="366.5" y1="659.5" x2="658.5" y2="659.5"/><circle class="cls-6" cx="742" cy="694" r="178"/><line class="cls-8" x1="658.63" y1="690.36" x2="719.87" y2="759.53"/><line class="cls-8" x1="845.68" y1="659.89" x2="725.91" y2="765.94"/></svg>