<?xml version="1.0" encoding="UTF-8"?><svg id="Layer_1" xmlns="http://www.w3.org/2000/svg" viewBox="0 0 974.5 974.5"><defs><style>.cls-1{fill:#fff;}.cls-2{fill:#e48d88;}.cls-3{fill:#edc5bc;}</style></defs><path class="cls-1" d="M974.5,487.25c0,140.2-59.22,266.59-154.02,355.47-87.14,81.73-204.34,131.78-333.23,131.78s-244.81-49.5-331.79-130.43C59.83,755.12,0,628.16,0,487.25,0,218.15,218.15,0,487.25,0s487.25,218.15,487.25,487.25Z"/><path class="cls-3" d="M906.75,487.37c0,120.71-50.99,229.52-132.6,306.04-75.02,70.37-175.93,113.46-286.9,113.46s-210.77-42.62-285.66-112.29c-82.33-76.59-133.84-185.89-133.84-307.21,0-231.68,187.82-419.5,419.5-419.5s419.5,187.82,419.5,419.5Z"/><path class="cls-2" d="M757.19,739.98c0,20.11-.31,52.45-4,71.39-69.18,67.11-163.85,95-266.18,95.5-102.82,.5-191.82-34.5-264.82-94.5-3.84-19.29-4.44-51.89-4.44-72.39,0-98.73,46.69-185.85,117.81-237.61,28.12,57.4,85.72,96.74,152.2,96.74s123.86-39.19,152.05-96.42c70.88,51.8,117.38,138.77,117.38,237.3Z"/><circle class="cls-2" cx="487.59" cy="360.8" r="180.47"/></svg>